HIERARCHY
ROOT joint_Root
{
	OFFSET 0.0 0.0 0.0
	CHANNELS 6 Xposition Yposition Zposition Zrotation Xrotation Yrotation 
	JOINT Hips
	{
		OFFSET 4.5925 91.4895 -427.239
		CHANNELS 6 Xposition Yposition Zposition Zrotation Xrotation Yrotation 
		JOINT Spine
		{
			OFFSET 15.7357 0.0 0.0
			CHANNELS 6 Xposition Yposition Zposition Zrotation Xrotation Yrotation 
			JOINT Chest
			{
				OFFSET 8.98455 -0.406207 0.0
				CHANNELS 6 Xposition Yposition Zposition Zrotation Xrotation Yrotation 
				JOINT Neck
				{
					OFFSET 16.3773 0.0 0.0
					CHANNELS 6 Xposition Yposition Zposition Zrotation Xrotation Yrotation 
					JOINT Head
					{
						OFFSET 6.45672 0.0 0.0
						CHANNELS 6 Xposition Yposition Zposition Zrotation Xrotation Yrotation 
						End Site
						{
							OFFSET 0.0 0.0 0.0
						}
					}
				}
				JOINT Shoulder_L
				{
					OFFSET 12.9942 -0.242716 4.98039
					CHANNELS 6 Xposition Yposition Zposition Zrotation Xrotation Yrotation 
					JOINT UpperArm_L
					{
						OFFSET 5.34809 0.0 0.0
						CHANNELS 6 Xposition Yposition Zposition Zrotation Xrotation Yrotation 
						JOINT LowerArm_L
						{
							OFFSET 24.3286 1.87007e-05 0.0
							CHANNELS 6 Xposition Yposition Zposition Zrotation Xrotation Yrotation 
							JOINT Hand_L
							{
								OFFSET 22.2916 0.0 0.0
								CHANNELS 6 Xposition Yposition Zposition Zrotation Xrotation Yrotation 
								End Site
								{
									OFFSET 0.0 0.0 0.0
								}
							}
						}
					}
				}
				JOINT Shoulder_R
				{
					OFFSET 12.9945 -0.242716 -4.98039
					CHANNELS 6 Xposition Yposition Zposition Zrotation Xrotation Yrotation 
					JOINT UpperArm_R
					{
						OFFSET -5.34813 0.0 0.0
						CHANNELS 6 Xposition Yposition Zposition Zrotation Xrotation Yrotation 
						JOINT LowerArm_R
						{
							OFFSET -24.3289 0.000322201 0.0
							CHANNELS 6 Xposition Yposition Zposition Zrotation Xrotation Yrotation 
							JOINT Hand_R
							{
								OFFSET -22.2915 -0.000108084 0.0
								CHANNELS 6 Xposition Yposition Zposition Zrotation Xrotation Yrotation 
								End Site
								{
									OFFSET 0.0 0.0 0.0
								}
							}
						}
					}
				}
			}
		}
		JOINT UpperLeg_L
		{
			OFFSET -2.19248 -6.46944 0.0
			CHANNELS 6 Xposition Yposition Zposition Zrotation Xrotation Yrotation 
			JOINT LowerLeg_L
			{
				OFFSET 39.0811 0.0 -1.23785e-05
				CHANNELS 6 Xposition Yposition Zposition Zrotation Xrotation Yrotation 
				JOINT Foot_L
				{
					OFFSET 40.9854 0.0 -1.26872e-05
					CHANNELS 6 Xposition Yposition Zposition Zrotation Xrotation Yrotation 
					JOINT Toes_L
					{
						OFFSET 11.7543 0.0 0.0
						CHANNELS 6 Xposition Yposition Zposition Zrotation Xrotation Yrotation 
						End Site
						{
							OFFSET 0.0 0.0 0.0
						}
					}
				}
			}
		}
		JOINT UpperLeg_R
		{
			OFFSET -2.19251 6.46944 0.0
			CHANNELS 6 Xposition Yposition Zposition Zrotation Xrotation Yrotation 
			JOINT LowerLeg_R
			{
				OFFSET -39.0811 -0.00228153 -0.0401928
				CHANNELS 6 Xposition Yposition Zposition Zrotation Xrotation Yrotation 
				JOINT Foot_R
				{
					OFFSET -40.9854 0.0 0.0
					CHANNELS 6 Xposition Yposition Zposition Zrotation Xrotation Yrotation 
					JOINT Toes_R
					{
						OFFSET -11.7543 0.0 0.0
						CHANNELS 6 Xposition Yposition Zposition Zrotation Xrotation Yrotation 
						End Site
						{
							OFFSET 0.0 0.0 0.0
						}
					}
				}
			}
		}
	}
}
MOTION
Frames:	8
Frame Time:	0.0333333
0.000000 0.000000 0.000000 0.000000 0.000000 -0.000000 -1.569340 89.911500 -1.913300 89.726700 -2.127330 12.532600 15.735700 0.000005 -0.000001 90.144000 75.679900 -89.318700 8.984550 -0.406207 -0.000000 20.873400 0.164115 1.626360 16.377300 -0.000001 -0.000001 10.124900 -2.821490 2.127210 6.456720 -0.000001 -0.000000 -7.244310 -2.724550 7.188470 12.994200 -0.242716 4.980390 -89.934800 -0.196387 -71.618400 5.348090 -0.000007 -0.000001 -74.964900 -13.637400 -76.640300 24.328600 0.000019 0.000005 38.648500 -14.274500 -107.136000 22.291600 -0.000001 0.000005 17.115700 4.944370 8.480660 12.994500 -0.242716 -4.980390 89.037400 10.344200 -84.654000 -5.348130 -0.000001 -0.000004 -54.033800 32.734800 -26.695300 -24.328900 0.000322 -0.000009 1.195550 3.134490 -20.907000 -22.291500 -0.000108 -0.000004 16.672000 5.420680 -3.621880 -2.192480 -6.469440 -0.000000 -173.455000 -12.051300 -1.090820 39.081100 -0.000007 -0.000012 -0.227928 0.320395 35.428400 40.985400 -0.000006 -0.000013 -0.550739 5.296100 -71.313400 11.754300 -0.000000 0.000003 -0.000130 -0.001289 -16.626700 -2.192510 6.469440 -0.000001 174.367000 19.392800 179.962000 -39.081100 -0.002282 -0.040193 -0.097854 0.141479 35.561100 -40.985400 0.000008 0.000006 6.606880 11.455400 -73.337000 -11.754300 -0.000006 -0.000006 -0.001344 -0.020174 -17.393500
0.000000 0.000000 0.000000 0.000000 0.000000 -0.000000 -1.575550 89.912500 -1.925520 89.721700 -2.088780 12.540300 15.735700 0.000005 -0.000001 90.160700 75.670800 -89.329400 8.984550 -0.406207 -0.000000 20.891700 0.173097 1.636640 16.377300 -0.000001 -0.000001 10.155500 -2.818910 2.082380 6.456720 -0.000001 -0.000000 -7.225260 -2.715640 7.136190 12.994200 -0.242716 4.980390 -89.926400 -0.221970 -71.661600 5.348090 -0.000007 -0.000001 -75.040400 -13.676300 -76.681500 24.328600 0.000019 0.000005 38.650100 -14.299300 -107.163000 22.291600 -0.000001 0.000005 17.093800 4.946380 8.439440 12.994500 -0.242716 -4.980390 89.038600 10.336400 -84.656900 -5.348130 -0.000001 -0.000004 -54.042000 32.768500 -26.682300 -24.328900 0.000322 -0.000009 1.203480 3.152140 -20.926000 -22.291500 -0.000108 -0.000004 16.680200 5.421620 -3.653630 -2.192480 -6.469440 -0.000000 -173.446000 -12.044800 -1.099090 39.081100 -0.000007 -0.000012 -0.226291 0.318071 35.430300 40.985400 -0.000006 -0.000013 -0.549834 5.314320 -71.299800 11.754300 -0.000000 0.000003 -0.000132 -0.001305 -16.627300 -2.192510 6.469440 -0.000001 174.367000 19.402300 179.968000 -39.081100 -0.002282 -0.040193 -0.101463 0.146620 35.543900 -40.985400 0.000008 0.000006 6.499480 11.486300 -73.293300 -11.754300 -0.000006 -0.000006 -0.001231 -0.018638 -17.331000
0.000000 0.000000 0.000000 0.000000 0.000000 -0.000000 -1.578290 89.916900 -1.943020 89.725900 -2.084070 12.533600 15.735700 0.000005 -0.000001 90.180500 75.664400 -89.351400 8.984550 -0.406207 -0.000000 20.904400 0.182659 1.630500 16.377300 -0.000001 -0.000001 10.193100 -2.804770 2.031250 6.456720 -0.000001 -0.000000 -7.230060 -2.699660 7.120670 12.994200 -0.242716 4.980390 -89.922700 -0.232833 -71.641100 5.348090 -0.000007 -0.000001 -75.060000 -13.685300 -76.740300 24.328600 0.000019 0.000005 38.617900 -14.304000 -107.187000 22.291600 -0.000001 0.000005 17.097600 4.944990 8.467940 12.994500 -0.242716 -4.980390 89.028800 10.368300 -84.618800 -5.348130 -0.000001 -0.000004 -53.949300 32.852400 -26.759200 -24.328900 0.000322 -0.000009 1.190240 3.113880 -20.947800 -22.291500 -0.000108 -0.000004 16.658900 5.421440 -3.647810 -2.192480 -6.469440 -0.000000 -173.446000 -12.049200 -1.112030 39.081100 -0.000007 -0.000012 -0.231664 0.325840 35.412300 40.985400 -0.000006 -0.000013 -0.555579 5.308590 -71.274500 11.754300 -0.000000 0.000003 -0.000126 -0.001250 -16.625300 -2.192510 6.469440 -0.000001 174.367000 19.397500 179.959000 -39.081100 -0.002282 -0.040193 -0.101512 0.146761 35.530600 -40.985400 0.000008 0.000006 6.499460 11.478500 -73.278400 -11.754300 -0.000006 -0.000006 -0.001268 -0.019146 -17.351700
0.000000 0.000000 0.000000 0.000000 0.000000 -0.000000 -1.572470 89.922300 -1.957520 89.712200 -2.095900 12.535100 15.735700 0.000005 -0.000001 90.185700 75.659700 -89.355400 8.984550 -0.406207 -0.000000 20.913700 0.185406 1.632490 16.377300 -0.000001 -0.000001 10.231700 -2.780990 2.006230 6.456720 -0.000001 -0.000000 -7.218310 -2.656030 7.086720 12.994200 -0.242716 4.980390 -89.924100 -0.228162 -71.587700 5.348090 -0.000007 -0.000001 -75.079100 -13.692100 -76.786900 24.328600 0.000019 0.000005 38.553200 -14.282200 -107.200000 22.291600 -0.000001 0.000005 17.108000 4.948200 8.401990 12.994500 -0.242716 -4.980390 89.034800 10.357600 -84.646800 -5.348130 -0.000001 -0.000004 -53.950200 32.882300 -26.774000 -24.328900 0.000322 -0.000009 1.194890 3.122990 -20.966400 -22.291500 -0.000108 -0.000004 16.653500 5.421760 -3.658380 -2.192480 -6.469440 -0.000000 -173.438000 -12.053000 -1.113560 39.081100 -0.000007 -0.000012 -0.229545 0.323007 35.399900 40.985400 -0.000006 -0.000013 -0.545109 5.322760 -71.260400 11.754300 -0.000000 0.000003 -0.000132 -0.001300 -16.627100 -2.192510 6.469440 -0.000001 174.386000 19.431600 179.954000 -39.081100 -0.002282 -0.040193 -0.095344 0.138185 35.518600 -40.985400 0.000008 0.000006 6.608880 11.469400 -73.284400 -11.754300 -0.000006 -0.000006 -0.001563 -0.023107 -17.512700
0.000000 0.000000 0.000000 0.000000 0.000000 -0.000000 -1.564840 89.924900 -1.965030 89.709900 -2.111250 12.557100 15.735700 0.000005 -0.000001 90.228500 75.657500 -89.400200 8.984550 -0.406207 -0.000000 20.917800 0.206136 1.624570 16.377300 -0.000001 -0.000001 10.288200 -2.773670 1.969840 6.456720 -0.000001 -0.000000 -7.212610 -2.672890 7.095600 12.994200 -0.242716 4.980390 -89.933900 -0.198256 -71.550300 5.348090 -0.000007 -0.000001 -75.049000 -13.682200 -76.813200 24.328600 0.000019 0.000005 38.394200 -14.209700 -107.212000 22.291600 -0.000001 0.000005 17.080100 4.954660 8.269030 12.994500 -0.242716 -4.980390 89.028700 10.363400 -84.616200 -5.348130 -0.000001 -0.000004 -53.968500 32.906400 -26.761300 -24.328900 0.000322 -0.000009 1.192590 3.113030 -20.990800 -22.291500 -0.000108 -0.000004 16.667400 5.422160 -3.671860 -2.192480 -6.469440 -0.000000 -173.433000 -12.083000 -1.083650 39.081100 -0.000007 -0.000012 -0.227385 0.320074 35.390900 40.985400 -0.000006 -0.000013 -0.539948 5.314800 -71.256700 11.754300 -0.000000 0.000003 -0.000122 -0.001219 -16.624100 -2.192510 6.469440 -0.000001 174.374000 19.419800 179.978000 -39.081100 -0.002282 -0.040193 -0.097870 0.141822 35.499800 -40.985400 0.000008 0.000006 6.543140 11.501900 -73.252500 -11.754300 -0.000006 -0.000006 -0.001228 -0.018592 -17.329200
0.000000 0.000000 0.000000 0.000000 0.000000 -0.000000 -1.551070 89.919100 -1.975560 89.699200 -2.128860 12.558700 15.735700 0.000005 -0.000001 90.236900 75.656500 -89.408900 8.984550 -0.406207 -0.000000 20.919700 0.210236 1.623230 16.377300 -0.000001 -0.000001 10.295500 -2.767820 1.965590 6.456720 -0.000001 -0.000000 -7.198530 -2.652790 7.071560 12.994200 -0.242716 4.980390 -89.930500 -0.208125 -71.536200 5.348090 -0.000007 -0.000001 -75.063700 -13.699700 -76.766600 24.328600 0.000019 0.000005 38.411400 -14.235800 -107.231000 22.291600 -0.000001 0.000005 17.059400 4.952290 8.317910 12.994500 -0.242716 -4.980390 89.029500 10.347200 -84.612400 -5.348130 -0.000001 -0.000004 -53.955200 32.970400 -26.806100 -24.328900 0.000322 -0.000009 1.189510 3.105760 -20.986100 -22.291500 -0.000108 -0.000004 16.693800 5.420020 -3.599640 -2.192480 -6.469440 -0.000000 -173.441000 -12.064900 -1.110570 39.081100 -0.000007 -0.000012 -0.224885 0.316090 35.430800 40.985400 -0.000006 -0.000013 -0.534339 5.290150 -71.271600 11.754300 -0.000000 0.000003 -0.000125 -0.001248 -16.625200 -2.192510 6.469440 -0.000001 174.367000 19.395500 179.967000 -39.081100 -0.002282 -0.040193 -0.105218 0.152065 35.510200 -40.985400 0.000008 0.000006 6.420800 11.541200 -73.221000 -11.754300 -0.000006 -0.000006 -0.001219 -0.018465 -17.324000
0.000000 0.000000 0.000000 0.000000 0.000000 -0.000000 -1.529260 89.922500 -1.990870 89.708700 -2.132410 12.581500 15.735700 0.000005 -0.000001 90.211000 75.648800 -89.395900 8.984550 -0.406207 -0.000000 20.935300 0.196269 1.599990 16.377300 -0.000001 -0.000001 10.287100 -2.772790 1.946840 6.456720 -0.000001 -0.000000 -7.201500 -2.661880 7.114520 12.994200 -0.242716 4.980390 -89.924200 -0.226493 -71.501500 5.348090 -0.000007 -0.000001 -75.057500 -13.683900 -76.729600 24.328600 0.000019 0.000005 38.464700 -14.251600 -107.217000 22.291600 -0.000001 0.000005 17.134200 4.949730 8.370510 12.994500 -0.242716 -4.980390 89.032600 10.346000 -84.628500 -5.348130 -0.000001 -0.000004 -53.967400 32.976100 -26.812600 -24.328900 0.000322 -0.000009 1.195990 3.121310 -20.994400 -22.291500 -0.000108 -0.000004 16.636300 5.421030 -3.633760 -2.192480 -6.469440 -0.000000 -173.458000 -12.080800 -1.094290 39.081100 -0.000007 -0.000012 -0.226072 0.317902 35.418500 40.985400 -0.000006 -0.000013 -0.512739 5.303170 -71.255600 11.754300 -0.000000 0.000003 -0.000137 -0.001344 -16.628800 -2.192510 6.469440 -0.000001 174.342000 19.399600 179.978000 -39.081100 -0.002282 -0.040193 -0.102432 0.148173 35.508000 -40.985400 0.000008 0.000006 6.432410 11.535900 -73.208700 -11.754300 -0.000006 -0.000006 -0.001156 -0.017596 -17.288700
0.000000 0.000000 0.000000 0.000000 0.000000 -0.000000 -1.507970 89.923100 -2.008100 89.710500 -2.129790 12.586000 15.735700 0.000005 -0.000001 90.199800 75.648400 -89.387600 8.984550 -0.406207 -0.000000 20.936300 0.190449 1.595080 16.377300 -0.000001 -0.000001 10.295400 -2.769160 1.943500 6.456720 -0.000001 -0.000000 -7.219430 -2.677620 7.139430 12.994200 -0.242716 4.980390 -89.920200 -0.238743 -71.518200 5.348090 -0.000007 -0.000001 -75.092800 -13.673800 -76.675500 24.328600 0.000019 0.000005 38.495100 -14.278500 -107.230000 22.291600 -0.000001 0.000005 17.101300 4.947550 8.415440 12.994500 -0.242716 -4.980390 89.035800 10.335800 -84.641000 -5.348130 -0.000001 -0.000004 -53.960600 33.000300 -26.817100 -24.328900 0.000322 -0.000009 1.206070 3.145560 -21.007000 -22.291500 -0.000108 -0.000004 16.635700 5.420400 -3.612370 -2.192480 -6.469440 -0.000000 -173.478000 -12.075000 -1.100000 39.081100 -0.000007 -0.000012 -0.226616 0.318622 35.422300 40.985400 -0.000006 -0.000013 -0.505264 5.274980 -71.252600 11.754300 -0.000000 0.000003 -0.000121 -0.001213 -16.623900 -2.192510 6.469440 -0.000001 174.331000 19.401300 179.967000 -39.081100 -0.002282 -0.040193 -0.101969 0.147448 35.521900 -40.985400 0.000008 0.000006 6.500460 11.510200 -73.220600 -11.754300 -0.000006 -0.000006 -0.001408 -0.021047 -17.429000
